<svg xmlns="http://www.w3.org/2000/svg" xmlns:xlink="http://www.w3.org/1999/xlink" contentStyleType="text/css" data-diagram-type="SEQUENCE" height="808px" preserveAspectRatio="none" style="width:736px;height:808px;background:#FFFFFF;" version="1.1" viewBox="0 0 736 808" width="736px" zoomAndPan="magnify"><title>UC-02 Select and Approve Irrigation Plan</title><defs/><g><text fill="#000000" font-family="Arial" font-size="14" font-weight="bold" lengthAdjust="spacing" textLength="324.4609" x="205.1096" y="27.9951">UC-02 Select and Approve Irrigation Plan</text><g><title>Irrigation</title><rect fill="#000000" fill-opacity="0.00000" height="576.9219" width="8" x="35.9067" y="134.8906"/><line style="stroke:#4A5568;stroke-width:0.5;stroke-dasharray:5,5;" x1="39" x2="39" y1="134.8906" y2="711.8125"/></g><g><title>Grower .</title><rect fill="#000000" fill-opacity="0.00000" height="576.9219" width="8" x="126.9072" y="134.8906"/><line style="stroke:#4A5568;stroke-width:0.5;stroke-dasharray:5,5;" x1="130.8135" x2="130.8135" y1="134.8906" y2="711.8125"/></g><g><title>Precision Irrigation</title><rect fill="#000000" fill-opacity="0.00000" height="576.9219" width="8" x="368.7778" y="134.8906"/><line style="stroke:#4A5568;stroke-width:0.5;stroke-dasharray:5,5;" x1="372.7651" x2="372.7651" y1="134.8906" y2="711.8125"/></g><g><title>Farm Records .</title><rect fill="#000000" fill-opacity="0.00000" height="576.9219" width="8" x="653.9014" y="134.8906"/><line style="stroke:#4A5568;stroke-width:0.5;stroke-dasharray:5,5;" x1="657.1226" x2="657.1226" y1="134.8906" y2="711.8125"/></g><g class="participant participant-head" data-participant="IrrMgr"><text fill="#000000" font-family="Arial" font-size="14" lengthAdjust="spacing" textLength="63.8135" x="5" y="115.292">Irrigation</text><text fill="#000000" font-family="Arial" font-size="14" lengthAdjust="spacing" textLength="61.3662" x="6.2236" y="131.5889">Manager</text><ellipse cx="39.9067" cy="50.7969" fill="#FFFFFF" rx="8" ry="8" style="stroke:#4A5568;stroke-width:0.5;"/><path d="M39.9067,58.7969 L39.9067,85.7969 M26.9067,66.7969 L52.9067,66.7969 M39.9067,85.7969 L26.9067,100.7969 M39.9067,85.7969 L52.9067,100.7969" fill="none" style="stroke:#4A5568;stroke-width:0.5;"/></g><g class="participant participant-tail" data-participant="IrrMgr"><text fill="#000000" font-family="Arial" font-size="14" lengthAdjust="spacing" textLength="63.8135" x="5" y="723.8076">Irrigation</text><text fill="#000000" font-family="Arial" font-size="14" lengthAdjust="spacing" textLength="61.3662" x="6.2236" y="740.1045">Manager</text><ellipse cx="39.9067" cy="751.9063" fill="#FFFFFF" rx="8" ry="8" style="stroke:#4A5568;stroke-width:0.5;"/><path d="M39.9067,759.9063 L39.9067,786.9063 M26.9067,767.9063 L52.9067,767.9063 M39.9067,786.9063 L26.9067,801.9063 M39.9067,786.9063 L52.9067,801.9063" fill="none" style="stroke:#4A5568;stroke-width:0.5;"/></g><g class="participant participant-head" data-participant="Grower"><text fill="#000000" font-family="Arial" font-size="14" lengthAdjust="spacing" textLength="60.1563" x="97.8291" y="115.292">Grower /</text><text fill="#000000" font-family="Arial" font-size="14" lengthAdjust="spacing" textLength="86.1875" x="84.8135" y="131.5889">Farm Owner</text><ellipse cx="130.9072" cy="50.7969" fill="#FFFFFF" rx="8" ry="8" style="stroke:#4A5568;stroke-width:0.5;"/><path d="M130.9072,58.7969 L130.9072,85.7969 M117.9072,66.7969 L143.9072,66.7969 M130.9072,85.7969 L117.9072,100.7969 M130.9072,85.7969 L143.9072,100.7969" fill="none" style="stroke:#4A5568;stroke-width:0.5;"/></g><g class="participant participant-tail" data-participant="Grower"><text fill="#000000" font-family="Arial" font-size="14" lengthAdjust="spacing" textLength="60.1563" x="97.8291" y="723.8076">Grower /</text><text fill="#000000" font-family="Arial" font-size="14" lengthAdjust="spacing" textLength="86.1875" x="84.8135" y="740.1045">Farm Owner</text><ellipse cx="130.9072" cy="751.9063" fill="#FFFFFF" rx="8" ry="8" style="stroke:#4A5568;stroke-width:0.5;"/><path d="M130.9072,759.9063 L130.9072,786.9063 M117.9072,767.9063 L143.9072,767.9063 M130.9072,786.9063 L117.9072,801.9063 M130.9072,786.9063 L143.9072,801.9063" fill="none" style="stroke:#4A5568;stroke-width:0.5;"/></g><g class="participant participant-head" data-participant="System"><rect fill="#E8F1FB" height="46.5938" rx="2.5" ry="2.5" style="stroke:#4A5568;stroke-width:0.5;" width="148.0254" x="298.7651" y="87.2969"/><text fill="#000000" font-family="Arial" font-size="14" lengthAdjust="spacing" textLength="131.2842" x="307.1357" y="107.292">Precision Irrigation</text><text fill="#000000" font-family="Arial" font-size="14" lengthAdjust="spacing" textLength="134.0254" x="305.7651" y="123.5889">Scheduling System</text></g><g class="participant participant-tail" data-participant="System"><rect fill="#E8F1FB" height="46.5938" rx="2.5" ry="2.5" style="stroke:#4A5568;stroke-width:0.5;" width="148.0254" x="298.7651" y="710.8125"/><text fill="#000000" font-family="Arial" font-size="14" lengthAdjust="spacing" textLength="131.2842" x="307.1357" y="730.8076">Precision Irrigation</text><text fill="#000000" font-family="Arial" font-size="14" lengthAdjust="spacing" textLength="134.0254" x="305.7651" y="747.1045">Scheduling System</text></g><g class="participant participant-head" data-participant="Records"><rect fill="#E8F1FB" height="46.5938" rx="2.5" ry="2.5" style="stroke:#4A5568;stroke-width:0.5;" width="145.5576" x="585.1226" y="87.2969"/><text fill="#000000" font-family="Arial" font-size="14" lengthAdjust="spacing" textLength="106.1826" x="604.8101" y="107.292">Farm Records /</text><text fill="#000000" font-family="Arial" font-size="14" lengthAdjust="spacing" textLength="131.5576" x="592.1226" y="123.5889">Planning Database</text></g><g class="participant participant-tail" data-participant="Records"><rect fill="#E8F1FB" height="46.5938" rx="2.5" ry="2.5" style="stroke:#4A5568;stroke-width:0.5;" width="145.5576" x="585.1226" y="710.8125"/><text fill="#000000" font-family="Arial" font-size="14" lengthAdjust="spacing" textLength="106.1826" x="604.8101" y="730.8076">Farm Records /</text><text fill="#000000" font-family="Arial" font-size="14" lengthAdjust="spacing" textLength="131.5576" x="592.1226" y="747.1045">Planning Database</text></g><g class="message" data-participant-1="IrrMgr" data-participant-2="System"><polygon fill="#4A5568" points="360.7778,162.0234,370.7778,166.0234,360.7778,170.0234,364.7778,166.0234" style="stroke:#4A5568;stroke-width:1;"/><line style="stroke:#4A5568;stroke-width:1;" x1="39.9067" x2="366.7778" y1="166.0234" y2="166.0234"/><text fill="#000000" font-family="Arial" font-size="13" lengthAdjust="spacing" textLength="173.9258" x="46.9067" y="160.9575">Open scenario comparison</text></g><g class="message" data-participant-1="System" data-participant-2="Records"><polygon fill="#4A5568" points="645.9014,206.2891,655.9014,210.2891,645.9014,214.2891,649.9014,210.2891" style="stroke:#4A5568;stroke-width:1;"/><line style="stroke:#4A5568;stroke-width:1;" x1="372.7778" x2="651.9014" y1="210.2891" y2="210.2891"/><text fill="#000000" font-family="Arial" font-size="13" lengthAdjust="spacing" textLength="189.376" x="379.7778" y="190.0903">Retrieve candidate scenarios</text><text fill="#000000" font-family="Arial" font-size="13" lengthAdjust="spacing" textLength="132.0186" x="379.7778" y="205.2231">and supporting data</text></g><g class="message" data-participant-1="Records" data-participant-2="System"><polygon fill="#4A5568" points="383.7778,235.4219,373.7778,239.4219,383.7778,243.4219,379.7778,239.4219" style="stroke:#4A5568;stroke-width:1;"/><line style="stroke:#4A5568;stroke-width:1;stroke-dasharray:2,2;" x1="377.7778" x2="656.9014" y1="239.4219" y2="239.4219"/><text fill="#000000" font-family="Arial" font-size="13" lengthAdjust="spacing" textLength="228.376" x="389.7778" y="234.356">Return scenarios and stored inputs</text></g><g class="message" data-participant-1="System" data-participant-2="IrrMgr"><polygon fill="#4A5568" points="50.9067,279.6875,40.9067,283.6875,50.9067,287.6875,46.9067,283.6875" style="stroke:#4A5568;stroke-width:1;"/><line style="stroke:#4A5568;stroke-width:1;stroke-dasharray:2,2;" x1="44.9067" x2="371.7778" y1="283.6875" y2="283.6875"/><text fill="#000000" font-family="Arial" font-size="13" lengthAdjust="spacing" textLength="159.688" x="56.9067" y="263.4888">Display candidate plans,</text><text fill="#000000" font-family="Arial" font-size="13" lengthAdjust="spacing" textLength="211.4722" x="56.9067" y="278.6216">tradeoffs, and expected impacts</text></g><g class="message" data-participant-1="IrrMgr" data-participant-2="System"><polygon fill="#4A5568" points="360.7778,308.8203,370.7778,312.8203,360.7778,316.8203,364.7778,312.8203" style="stroke:#4A5568;stroke-width:1;"/><line style="stroke:#4A5568;stroke-width:1;" x1="39.9067" x2="366.7778" y1="312.8203" y2="312.8203"/><text fill="#000000" font-family="Arial" font-size="13" lengthAdjust="spacing" textLength="137.5474" x="46.9067" y="307.7544">Select preferred plan</text></g><g class="message" data-participant-1="System" data-participant-2="IrrMgr"><polygon fill="#4A5568" points="50.9067,353.0859,40.9067,357.0859,50.9067,361.0859,46.9067,357.0859" style="stroke:#4A5568;stroke-width:1;"/><line style="stroke:#4A5568;stroke-width:1;stroke-dasharray:2,2;" x1="44.9067" x2="371.7778" y1="357.0859" y2="357.0859"/><text fill="#000000" font-family="Arial" font-size="13" lengthAdjust="spacing" textLength="191.7627" x="56.9067" y="336.8872">Show selected plan summary</text><text fill="#000000" font-family="Arial" font-size="13" lengthAdjust="spacing" textLength="65.2856" x="56.9067" y="352.02">for review</text></g><g class="message" data-participant-1="IrrMgr" data-participant-2="System"><polygon fill="#4A5568" points="360.7778,382.2188,370.7778,386.2188,360.7778,390.2188,364.7778,386.2188" style="stroke:#4A5568;stroke-width:1;"/><line style="stroke:#4A5568;stroke-width:1;" x1="39.9067" x2="366.7778" y1="386.2188" y2="386.2188"/><text fill="#000000" font-family="Arial" font-size="13" lengthAdjust="spacing" textLength="220.5049" x="46.9067" y="381.1528">Submit selected plan for approval</text></g><g class="message" data-participant-1="System" data-participant-2="Grower"><polygon fill="#4A5568" points="141.9072,411.3516,131.9072,415.3516,141.9072,419.3516,137.9072,415.3516" style="stroke:#4A5568;stroke-width:1;"/><line style="stroke:#4A5568;stroke-width:1;stroke-dasharray:2,2;" x1="135.9072" x2="371.7778" y1="415.3516" y2="415.3516"/><text fill="#000000" font-family="Arial" font-size="13" lengthAdjust="spacing" textLength="209.5679" x="147.9072" y="410.2856">Present proposed irrigation plan</text></g><g class="message" data-participant-1="Grower" data-participant-2="System"><polygon fill="#4A5568" points="360.7778,440.4844,370.7778,444.4844,360.7778,448.4844,364.7778,444.4844" style="stroke:#4A5568;stroke-width:1;"/><line style="stroke:#4A5568;stroke-width:1;" x1="130.9072" x2="366.7778" y1="444.4844" y2="444.4844"/><text fill="#000000" font-family="Arial" font-size="13" lengthAdjust="spacing" textLength="217.8706" x="137.9072" y="439.4185">Review plan details and tradeoffs</text></g><g class="message" data-participant-1="System" data-participant-2="Grower"><polygon fill="#4A5568" points="141.9072,484.75,131.9072,488.75,141.9072,492.75,137.9072,488.75" style="stroke:#4A5568;stroke-width:1;"/><line style="stroke:#4A5568;stroke-width:1;stroke-dasharray:2,2;" x1="135.9072" x2="371.7778" y1="488.75" y2="488.75"/><text fill="#000000" font-family="Arial" font-size="13" lengthAdjust="spacing" textLength="170.1045" x="147.9072" y="468.5513">Display timing, water use,</text><text fill="#000000" font-family="Arial" font-size="13" lengthAdjust="spacing" textLength="206.8955" x="147.9072" y="483.6841">resource impacts, and priorities</text></g><g class="message" data-participant-1="Grower" data-participant-2="System"><polygon fill="#4A5568" points="360.7778,513.8828,370.7778,517.8828,360.7778,521.8828,364.7778,517.8828" style="stroke:#4A5568;stroke-width:1;"/><line style="stroke:#4A5568;stroke-width:1;" x1="130.9072" x2="366.7778" y1="517.8828" y2="517.8828"/><text fill="#000000" font-family="Arial" font-size="13" lengthAdjust="spacing" textLength="145.5962" x="137.9072" y="512.8169">Approve selected plan</text></g><g class="message" data-participant-1="System" data-participant-2="Records"><polygon fill="#4A5568" points="645.9014,558.1484,655.9014,562.1484,645.9014,566.1484,649.9014,562.1484" style="stroke:#4A5568;stroke-width:1;"/><line style="stroke:#4A5568;stroke-width:1;" x1="372.7778" x2="651.9014" y1="562.1484" y2="562.1484"/><text fill="#000000" font-family="Arial" font-size="13" lengthAdjust="spacing" textLength="157.6694" x="379.7778" y="541.9497">Store approval decision,</text><text fill="#000000" font-family="Arial" font-size="13" lengthAdjust="spacing" textLength="261.1235" x="379.7778" y="557.0825">selected plan, approver, and timestamp</text></g><g class="message" data-participant-1="Records" data-participant-2="System"><polygon fill="#4A5568" points="383.7778,587.2813,373.7778,591.2813,383.7778,595.2813,379.7778,591.2813" style="stroke:#4A5568;stroke-width:1;"/><line style="stroke:#4A5568;stroke-width:1;stroke-dasharray:2,2;" x1="377.7778" x2="656.9014" y1="591.2813" y2="591.2813"/><text fill="#000000" font-family="Arial" font-size="13" lengthAdjust="spacing" textLength="154.7368" x="389.7778" y="586.2153">Confirm decision stored</text></g><g class="message" data-participant-1="System" data-participant-2="IrrMgr"><polygon fill="#4A5568" points="50.9067,616.4141,40.9067,620.4141,50.9067,624.4141,46.9067,620.4141" style="stroke:#4A5568;stroke-width:1;"/><line style="stroke:#4A5568;stroke-width:1;stroke-dasharray:2,2;" x1="44.9067" x2="371.7778" y1="620.4141" y2="620.4141"/><text fill="#000000" font-family="Arial" font-size="13" lengthAdjust="spacing" textLength="149.5127" x="56.9067" y="615.3481">Confirm approved plan</text></g><g class="message" data-participant-1="System" data-participant-2="Records"><polygon fill="#4A5568" points="645.9014,660.6797,655.9014,664.6797,645.9014,668.6797,649.9014,664.6797" style="stroke:#4A5568;stroke-width:1;"/><line style="stroke:#4A5568;stroke-width:1;" x1="372.7778" x2="651.9014" y1="664.6797" y2="664.6797"/><text fill="#000000" font-family="Arial" font-size="13" lengthAdjust="spacing" textLength="176.7695" x="379.7778" y="644.481">Store approved plan status</text><text fill="#000000" font-family="Arial" font-size="13" lengthAdjust="spacing" textLength="221.8252" x="379.7778" y="659.6138">for later reporting and verification</text></g><g class="message" data-participant-1="Records" data-participant-2="System"><polygon fill="#4A5568" points="383.7778,689.8125,373.7778,693.8125,383.7778,697.8125,379.7778,693.8125" style="stroke:#4A5568;stroke-width:1;"/><line style="stroke:#4A5568;stroke-width:1;stroke-dasharray:2,2;" x1="377.7778" x2="656.9014" y1="693.8125" y2="693.8125"/><text fill="#000000" font-family="Arial" font-size="13" lengthAdjust="spacing" textLength="185.9355" x="389.7778" y="688.7466">Confirm plan status updated</text></g><!--SRC=[ZLHDRzim3BthLn3TDS4-i0v53WFIT1a6j6kmeBTSM9bEXDgIHidDWc7_VPGj9qxX3lF93idtdXwV4asi21uMqtSVO4qLwGXe2vXxp-wPu1kpsM8qpiAgGgjKU3BM8sCDOOU5snkxXHAhG8DAGIKsLLmw6xzZJJ1dWzLmadusP3N1RmLIPBTVkCenlFaulxpyT2K_tfgIResbQyS5yQjLr4zRTeqjSiUoVQHZXHoDDXvj78SODhn4-NArVB-yJj9qT3m-tvLUuV-Z5AOwN9piszWxjBWblW0CoTQxBVTTNyK1OdYxiKla6kxtDhTr1QNyIIrSh9Yq2MaZG_Irtb7HL6aTwqE8LBS0tUlvVClnWxISAoJEj5URvcumuYC6QYTpWrATL9X-pc0mWtjF5e8cYsmSQ5SBlWdEgjmXlJt-JDuY6v8eQScLAJ3ISJHiRCfQQBnt8b0aI1bLFpiTSWfCmoVMqAOqY7rKWEIgYU78BcDPz0nkJF0L7WRaycd3P6CZOq6kBCEaXQ9VNhAVmEGqEeuVF5yGprGI9-O4DigxthczvBpgC5ER7BEkaGyRMyhEcPuDxST9ciVQn1V3QGRREoatQK2OepC3IKKWcxGvxq8wn-dcjYfLRZqtDQde60gAQAhErwCterIzfz7KihC9xCLMXYQGk2egNCDojREDdRbUDiOc6WgZCle_cxCZZuPfdHP-D48qTpT1YCzc9xc5kECNfHGYrduyMmjdIyFr4IxdIerkjc_E3FyfzXY2YB49NGQgrZUcFln9gKWsfT7jtlujTW07ZK_HBlu2]--></g></svg>